<svg xmlns="http://www.w3.org/2000/svg" width="97" height="97" viewBox="0 0 97 97">
  <g id="Grupo_7" data-name="Grupo 7" transform="translate(-1681 -3752)">
    <g id="Elipse_5" data-name="Elipse 5" transform="translate(1681 3752)" fill="#fff" stroke="#707070" stroke-width="1">
      <circle cx="48.5" cy="48.5" r="48.5" stroke="none"/>
      <circle cx="48.5" cy="48.5" r="48" fill="none"/>
    </g>
    <path id="Icon_awesome-instagram" data-name="Icon awesome-instagram" d="M31.843,17.748A16.324,16.324,0,1,0,48.167,34.072,16.3,16.3,0,0,0,31.843,17.748Zm0,26.936A10.613,10.613,0,1,1,42.456,34.072,10.632,10.632,0,0,1,31.843,44.685Zm20.8-27.6a3.807,3.807,0,1,1-3.807-3.807A3.8,3.8,0,0,1,52.642,17.08Zm10.812,3.864c-.242-5.1-1.406-9.618-5.143-13.34s-8.24-4.887-13.34-5.143c-5.257-.3-21.012-.3-26.269,0C13.616,2.7,9.1,3.868,5.361,7.59S.474,15.83.218,20.931c-.3,5.257-.3,21.012,0,26.269.242,5.1,1.406,9.618,5.143,13.34s8.24,4.887,13.34,5.143c5.257.3,21.012.3,26.269,0,5.1-.242,9.618-1.406,13.34-5.143S63.2,52.3,63.454,47.2c.3-5.257.3-21,0-26.254ZM56.663,52.839a10.744,10.744,0,0,1-6.052,6.052C46.42,60.554,36.475,60.17,31.843,60.17s-14.591.369-18.767-1.279a10.744,10.744,0,0,1-6.052-6.052C5.361,48.648,5.745,38.7,5.745,34.072S5.376,19.481,7.024,15.3a10.744,10.744,0,0,1,6.052-6.052C17.267,7.59,27.212,7.974,31.843,7.974S46.434,7.6,50.611,9.252A10.744,10.744,0,0,1,56.663,15.3c1.662,4.191,1.279,14.136,1.279,18.767S58.325,48.663,56.663,52.839Z" transform="translate(1698.692 3766.507)"/>
  </g>
</svg>
