<svg xmlns="http://www.w3.org/2000/svg" width="97" height="97" viewBox="0 0 97 97">
  <g id="Grupo_6" data-name="Grupo 6" transform="translate(-1569 -3752)">
    <g id="Elipse_4" data-name="Elipse 4" transform="translate(1569 3752)" fill="#3b84ff" stroke="#707070" stroke-width="1">
      <circle cx="48.5" cy="48.5" r="48.5" stroke="none"/>
      <circle cx="48.5" cy="48.5" r="48" fill="none"/>
    </g>
    <path id="Icon_awesome-twitter" data-name="Icon awesome-twitter" d="M58.408,16.558c.041.578.041,1.157.041,1.735,0,17.638-13.425,37.961-37.961,37.961A37.7,37.7,0,0,1,0,50.264a27.6,27.6,0,0,0,3.222.165,26.72,26.72,0,0,0,16.564-5.7A13.366,13.366,0,0,1,7.311,35.476a16.825,16.825,0,0,0,2.52.206,14.111,14.111,0,0,0,3.511-.454,13.344,13.344,0,0,1-10.7-13.094v-.165a13.437,13.437,0,0,0,6.031,1.693A13.362,13.362,0,0,1,4.544,5.818,37.925,37.925,0,0,0,32.054,19.78a15.062,15.062,0,0,1-.33-3.057A13.355,13.355,0,0,1,54.814,7.594a26.268,26.268,0,0,0,8.468-3.222,13.306,13.306,0,0,1-5.866,7.353A26.747,26.747,0,0,0,65.1,9.659a28.681,28.681,0,0,1-6.692,6.9Z" transform="translate(1584.95 3772.595)" fill="#fff"/>
  </g>
</svg>
